<svg width="2590" height="2066" viewBox="0 0 2590 2066" fill="none" xmlns="http://www.w3.org/2000/svg">
<path d="M2587.93 -31.7202H-0.419922V2060.71H2587.93V-31.7202Z" fill="#11302A"/>
<path d="M2589.86 994.4H-11.75V2065.67H2589.86V994.4Z" fill="url(#paint0_linear_204_60)"/>
<path opacity="0.3" d="M326.83 2526.94C669.125 2526.94 946.61 2249.45 946.61 1907.16C946.61 1564.86 669.125 1287.38 326.83 1287.38C-15.465 1287.38 -292.95 1564.86 -292.95 1907.16C-292.95 2249.45 -15.465 2526.94 326.83 2526.94Z" fill="url(#paint1_linear_204_60)"/>
<path opacity="0.3" d="M2318.58 503.21C2365.08 503.21 2402.78 465.512 2402.78 419.01C2402.78 372.508 2365.08 334.81 2318.58 334.81C2272.08 334.81 2234.38 372.508 2234.38 419.01C2234.38 465.512 2272.08 503.21 2318.58 503.21Z" fill="url(#paint2_linear_204_60)"/>
<path opacity="0.03" d="M231.63 399.62C417.093 399.62 567.44 249.273 567.44 63.81C567.44 -121.653 417.093 -272 231.63 -272C46.1673 -272 -104.18 -121.653 -104.18 63.81C-104.18 249.273 46.1673 399.62 231.63 399.62Z" fill="url(#paint3_radial_204_60)"/>
<path opacity="0.03" d="M2165.68 457.66C2258.41 457.66 2333.59 382.484 2333.59 289.75C2333.59 197.016 2258.41 121.84 2165.68 121.84C2072.95 121.84 1997.77 197.016 1997.77 289.75C1997.77 382.484 2072.95 457.66 2165.68 457.66Z" fill="url(#paint4_radial_204_60)"/>
<defs>
<linearGradient id="paint0_linear_204_60" x1="1288.5" y1="2093.79" x2="1289.6" y2="973.6" gradientUnits="userSpaceOnUse">
<stop stop-color="#6A1D00"/>
<stop offset="0.04" stop-color="#651D02" stop-opacity="0.96"/>
<stop offset="0.48" stop-color="#382717" stop-opacity="0.55"/>
<stop offset="0.81" stop-color="#1B2D24" stop-opacity="0.3"/>
<stop offset="0.99" stop-color="#11302A" stop-opacity="0.2"/>
</linearGradient>
<linearGradient id="paint1_linear_204_60" x1="452.74" y1="811.703" x2="261.488" y2="2474.81" gradientUnits="userSpaceOnUse">
<stop stop-color="#F7FF15"/>
<stop offset="0.05" stop-color="#E1EB16" stop-opacity="0.93"/>
<stop offset="0.2" stop-color="#ABBA1B" stop-opacity="0.74"/>
<stop offset="0.34" stop-color="#7B9020" stop-opacity="0.57"/>
<stop offset="0.48" stop-color="#556D23" stop-opacity="0.44"/>
<stop offset="0.62" stop-color="#375226" stop-opacity="0.33"/>
<stop offset="0.75" stop-color="#223F28" stop-opacity="0.26"/>
<stop offset="0.88" stop-color="#153329" stop-opacity="0.22"/>
<stop offset="0.99" stop-color="#11302A" stop-opacity="0.2"/>
</linearGradient>
<linearGradient id="paint2_linear_204_60" x1="2256.16" y1="282.833" x2="2350.95" y2="489.58" gradientUnits="userSpaceOnUse">
<stop stop-color="#F7FF15"/>
<stop offset="0.05" stop-color="#E1EB16" stop-opacity="0.93"/>
<stop offset="0.2" stop-color="#ABBA1B" stop-opacity="0.74"/>
<stop offset="0.34" stop-color="#7B9020" stop-opacity="0.57"/>
<stop offset="0.48" stop-color="#556D23" stop-opacity="0.44"/>
<stop offset="0.62" stop-color="#375226" stop-opacity="0.33"/>
<stop offset="0.75" stop-color="#223F28" stop-opacity="0.26"/>
<stop offset="0.88" stop-color="#153329" stop-opacity="0.22"/>
<stop offset="0.99" stop-color="#11302A" stop-opacity="0.2"/>
</linearGradient>
<radialGradient id="paint3_radial_204_60" cx="0" cy="0" r="1" gradientUnits="userSpaceOnUse" gradientTransform="translate(231.63 63.81) scale(335.81)">
<stop stop-color="#F7FF15"/>
<stop offset="0.27" stop-color="#F7FF17"/>
<stop offset="0.41" stop-color="#F7FF1F"/>
<stop offset="0.52" stop-color="#F7FF2C"/>
<stop offset="0.62" stop-color="#F8FF3F"/>
<stop offset="0.7" stop-color="#F9FF58"/>
<stop offset="0.78" stop-color="#FAFF76"/>
<stop offset="0.85" stop-color="#FBFF9A"/>
<stop offset="0.92" stop-color="#FDFFC4"/>
<stop offset="0.99" stop-color="#FEFFF3"/>
<stop offset="1" stop-color="white"/>
</radialGradient>
<radialGradient id="paint4_radial_204_60" cx="0" cy="0" r="1" gradientUnits="userSpaceOnUse" gradientTransform="translate(2165.68 289.75) scale(167.91 167.91)">
<stop stop-color="#F7FF15"/>
<stop offset="0.27" stop-color="#F7FF17"/>
<stop offset="0.41" stop-color="#F7FF1F"/>
<stop offset="0.52" stop-color="#F7FF2C"/>
<stop offset="0.62" stop-color="#F8FF3F"/>
<stop offset="0.7" stop-color="#F9FF58"/>
<stop offset="0.78" stop-color="#FAFF76"/>
<stop offset="0.85" stop-color="#FBFF9A"/>
<stop offset="0.92" stop-color="#FDFFC4"/>
<stop offset="0.99" stop-color="#FEFFF3"/>
<stop offset="1" stop-color="white"/>
</radialGradient>
</defs>
</svg>
