<svg width="847" height="503" viewBox="0 0 847 503" fill="none" xmlns="http://www.w3.org/2000/svg">
<g clip-path="url(#clip0_29_54)">
<path d="M421.366 41.4114C408.462 41.0378 396.189 39.0261 385.656 32.4882C359.746 23.7232 335.331 25.1169 312.626 38.164C291.243 52.3461 278.54 81.9749 277.735 103.888C276.93 125.8 276.93 135.945 280.983 156.636C285.035 177.327 291.53 173.275 290.726 193.967C289.921 214.658 276.125 228.05 276.125 228.05C248.549 254.532 239.769 287.494 252.587 327.857C273.294 356.882 300.785 366.409 333.736 360.316C350.506 359.138 363.899 351.321 375.927 340.846L476.548 337.599C489.697 354.784 510.347 361.839 534.978 363.564C567.857 363.046 587.602 349.884 601.527 331.104C612.893 300.441 610.81 271.142 592.603 243.468C582.112 233.74 572.628 224.141 566.635 215.075C562.885 205.706 561.75 194.455 562.583 181.811C577.442 147.239 579.626 92.8235 569.078 69.0285C558.531 45.2335 528.856 27.3154 498.477 25.2175C483.388 26.2808 468.458 32.9193 460.338 36.5834C452.219 40.2475 432.747 42.1298 421.38 41.4545L421.366 41.4114Z" fill="#FDB523"/>
<path d="M346.008 154.193C350.319 168.519 359.2 177.572 374.548 179.21C389.392 180.359 402.412 177.112 412.859 167.873C420.762 160.631 425.433 149.897 428.106 136.994C428.681 145.902 431.009 154.553 438.654 162.398C446.572 171.336 456.803 176.092 467.969 179.21C489.05 182.285 500.561 172.068 508.235 156.536C520.047 171.479 524.976 188.004 519.573 206.956C514.586 224.702 505.863 236.384 492.988 241.356C483.173 243.367 481.951 248.324 483.604 254.259C486.55 257.061 490.674 257.061 495.33 255.825C449.403 277.652 405.875 279.246 365.164 257.003C365.164 257.003 369.173 257.09 371.027 252.319C372.881 247.549 367.118 244.114 367.118 244.114C349.385 234.99 337.458 222.087 333.118 204.255C330.402 185.101 334.857 168.476 346.023 154.222L346.008 154.193Z" fill="white" stroke="#FDB523" stroke-miterlimit="10"/>
<path d="M366.989 198.55C367.506 191.653 370.926 187.256 377.81 185.834C386.417 186.94 390.887 192.875 391.605 203.148C392.51 211.238 391.26 217.201 387.553 220.736C381.417 222.863 375.467 223.366 369.705 222.087L365.106 225.334L366.457 221.009C363.698 214.486 363.224 208.925 364.833 204.241C366.888 205.649 371.932 206.41 372.406 203.163C372.881 199.915 367.003 198.565 367.003 198.565L366.989 198.55Z" fill="#EE8323"/>
<path d="M465.382 198.349C465.9 191.452 469.32 187.055 476.203 185.633C484.811 186.739 489.28 192.673 489.999 202.947C490.904 211.037 485.946 220.535 485.946 220.535L489.021 225.607L481.822 222.259C481.822 222.259 472.28 222.978 468.098 221.886C465.08 221.498 459.979 208.522 463.227 204.039C465.282 205.447 470.326 206.209 470.8 202.962C471.274 199.714 465.397 198.364 465.397 198.364L465.382 198.349Z" fill="#EE8323"/>
<path d="M410.818 221.914C422.588 225.736 433.94 225.291 444.991 221.742C444.991 221.742 439.444 229.788 428.709 229.429C417.975 229.07 410.818 221.914 410.818 221.914Z" fill="#EC451B"/>
<path d="M391.332 411.154C389.809 420.709 392.381 434.015 396.204 448.484C400.788 461.201 402.239 474.593 402.426 488.243C409.036 489.91 414.497 482.84 415.948 474.722C417.4 466.603 413.247 458.226 414.598 444.705C415.948 431.184 420.547 412.246 420.547 412.246L391.332 411.168V411.154Z" fill="white" stroke="#ED8421" stroke-width="3" stroke-miterlimit="10"/>
<path d="M415.776 473.184L402.297 473.802" stroke="#ED8421" stroke-width="3" stroke-miterlimit="10"/>
<path d="M438.38 412.375C438.912 422.031 444.244 434.489 451.055 447.823C458.226 459.29 462.494 472.049 465.569 485.355C472.395 485.585 476.217 477.509 475.916 469.276C475.614 461.043 469.78 453.729 468.228 440.222C466.676 426.715 467.164 407.245 467.164 407.245L438.38 412.375Z" fill="white" stroke="#ED8421" stroke-width="3" stroke-miterlimit="10"/>
<path d="M475.413 467.825L462.365 471.273" stroke="#ED8421" stroke-width="3" stroke-miterlimit="10"/>
<path d="M384.837 331.09C384.837 331.09 348.279 362.098 352.92 387.617C360.422 428.827 509.097 418.396 511.971 377.616C513.681 353.261 470.857 326.765 470.857 326.765L384.837 331.09Z" fill="#FDB523"/>
<path d="M397.051 272.651C395.988 271.114 352.892 298.515 346.928 303.875C340.964 309.234 307.323 311.318 305.714 316.836C304.104 322.353 309.579 324.882 317.296 326.563C325.013 328.245 335.144 329.006 349.256 325.17C363.367 321.333 389.191 303.904 389.191 303.904L382.365 330.702L473.516 326.765L466.158 309.953C465.555 310.485 498.879 326.836 508.982 328.345C518.495 329.753 534.949 332.124 545.238 330.184C551.762 329.294 554.593 325.773 553.113 322.037C551.633 318.301 522.749 315.126 516.598 312.051C510.448 308.976 471.849 280.367 452.765 271.602L397.08 272.651H397.051Z" fill="white" stroke="#EE8323" stroke-width="3" stroke-miterlimit="10"/>
<path d="M398.632 272.263L382.336 330.702C413.994 342.757 444.387 341.565 473.487 326.765L452.736 271.602L398.632 272.263Z" fill="#EE8323" stroke="#EE8323" stroke-width="3" stroke-miterlimit="10"/>
<path d="M404.323 269.346C404.323 269.346 402.498 286.991 413.649 286.589C424.801 286.187 426.022 270.151 426.022 270.151C426.022 270.151 430.276 288.198 440.22 287.595C450.164 286.991 449.144 269.131 449.144 269.131L404.308 269.332L404.323 269.346Z" fill="white"/>
<path d="M102.245 44.8456C103.279 26.8269 95.6344 11.6964 73.0299 1.5663C46.0856 -3.2473 26.4988 2.60087 17.8479 24.2836C4.45479 24.2405 0.445479 37.4456 0 55.6655C3.76502 78.7277 14.9307 91.7747 30.8387 98.3988L102.245 44.8456Z" fill="#151948"/>
<path d="M103.869 344.539C103.869 344.539 91.4238 366.179 98.997 390.52C98.997 390.52 104.946 420.278 98.997 469.492L119.561 474.894C119.561 474.894 140.657 412.691 141.749 400.779L150.946 402.403L153.647 478.142L171.495 479.219C171.495 479.219 206.659 388.336 199.632 356.422L103.869 344.525V344.539Z" fill="#151948"/>
<path d="M100.219 471.115C98.0342 486.375 99.2988 497.166 105.837 501.132C115.379 497.684 111.126 482.898 117.463 474.822L100.219 471.101V471.115Z" fill="white" stroke="#1E2458" stroke-width="2" stroke-miterlimit="10"/>
<path d="M155.472 479.162C157.685 488.473 161.824 503.575 167.313 501.348C172.803 499.12 165.488 486.706 169.21 480.182L155.487 479.162H155.472Z" fill="white" stroke="#1E2458" stroke-width="2" stroke-miterlimit="10"/>
<path d="M124.346 272.622C124.346 272.622 90.6623 296.963 76.8668 304.263C63.0713 311.562 40.7542 307.108 40.3518 316.836C39.9495 326.578 56.5759 326.161 72.412 325.759C88.2337 325.357 101.224 320.284 118.886 309.493C136.547 298.702 187.647 305.47 187.647 305.47C199.905 314.436 224.579 322.468 231.075 324.293C238.159 326.29 266.339 331.478 272.662 329.365C278.985 327.253 281.184 326.319 282.19 321.29C283.627 314.091 262.517 311.102 255.49 309.22C248.463 307.338 233.905 303.444 218.486 290.469C203.067 277.479 181.569 269.777 181.569 269.777L124.361 272.622H124.346Z" fill="white" stroke="#151948" stroke-width="3" stroke-miterlimit="10"/>
<path d="M125.51 272.594C125.51 272.594 131.46 288.285 103.869 344.539C103.869 344.539 147.684 364.009 199.632 356.437C199.632 356.437 200.178 329.394 192.059 307.209C183.94 285.023 182.316 276.919 182.316 276.919L125.51 272.594Z" fill="#233974"/>
<path d="M212.077 110.842L261.31 182.242C264.126 198.522 261.942 216.526 246.709 239.042C246.709 239.042 226.692 279.074 160.143 275.827C93.5938 272.579 61.6773 245.537 61.6773 245.537L62.2234 125.441L212.077 110.842Z" fill="white" stroke="#202356" stroke-width="3" stroke-miterlimit="10"/>
<path d="M228.301 63.2378C234.868 60.2634 152.785 -8.95187 65.4567 58.9128C65.4567 58.9128 8.32041 89.0732 9.13952 159.323C9.15389 160.889 9.38382 162.47 9.75744 163.993L19.4718 203.35C19.4718 203.35 30.8387 217.417 20.5495 225.535C20.5495 225.535 7.55879 229.329 15.678 244.474C15.678 244.474 35.1498 270.984 72.4838 248.267C72.3401 255.164 49.8793 191.495 102.245 136.29C120.093 193.636 202.866 186.064 209.907 126.547C243.232 159.179 252.371 196.323 251.969 208.91C251.567 221.498 252.17 222.503 245.876 237.303C253.765 246.586 257.128 249.934 266.167 252.046C278.999 251.716 288.814 247.491 293.758 236.901C293.082 228.783 285.078 226.268 277.534 222.834C270.392 219.587 276.585 203.091 279.158 196.323C281.73 189.555 289.576 162.111 287.277 135.744C284.977 109.377 268.337 88.1392 268.337 88.1392C255.878 74.4887 243.146 62.4044 228.301 63.2522V63.2378Z" fill="#202358"/>
<path d="M150.687 224.113C162.456 227.935 173.809 227.49 184.86 223.94C184.86 223.94 179.313 231.987 168.578 231.628C157.843 231.269 150.687 224.113 150.687 224.113Z" fill="#441B55"/>
<path d="M115.638 187.529C107.418 190.331 106.211 203.924 106.168 208.35C106.125 212.776 106.168 222.417 118.066 223.495C129.965 224.573 132.925 215.635 132.135 205.103C132.135 205.103 125.913 206.726 124.562 204.025C123.211 201.324 130.238 200.232 130.238 200.232C130.238 200.232 127.062 183.621 115.638 187.515V187.529Z" fill="#151948"/>
<path d="M112.663 189.958C112.663 189.958 103.193 189.828 103.739 186.71C103.739 186.71 103.193 191.984 109.013 193.737C114.833 195.49 112.663 189.943 112.663 189.943V189.958Z" fill="#151948"/>
<path d="M213.83 187.529C205.61 190.331 204.403 203.924 204.36 208.35C204.317 212.776 204.36 222.417 216.259 223.495C228.157 224.573 231.118 215.635 230.327 205.103C230.327 205.103 224.105 206.726 222.754 204.025C221.403 201.324 228.43 200.232 228.43 200.232C228.43 200.232 225.255 183.621 213.83 187.515V187.529Z" fill="#151948"/>
<path d="M223.602 189.958C223.602 189.958 233.072 189.828 232.526 186.71C232.526 186.71 233.072 191.984 227.252 193.737C221.432 195.49 223.602 189.943 223.602 189.943V189.958Z" fill="#151948"/>
<path d="M590.562 117.165C581.983 124.478 574.05 134.307 567.023 147.598C560.298 158.13 560.269 176.264 562.971 197.501L573.519 225.09C573.519 225.09 577.916 237.462 571.895 240.508C565.874 243.554 556.476 244.157 556.476 244.157C559.091 253.44 570.573 257.334 586.093 258.756C602.346 259.949 617.866 258.024 632.753 253.483L625.453 152.871L590.562 117.165Z" fill="#801316"/>
<path d="M621.199 132.367C628.5 128.717 591.985 138.043 591.18 196.869C595.232 252.046 639.867 263.814 682.474 269.49C725.082 275.166 799.334 253.267 801.762 247.175C804.191 241.082 782.693 136.419 782.693 136.419C782.693 136.419 613.899 136.017 621.199 132.367Z" fill="white" stroke="#A11D22" stroke-width="3" stroke-miterlimit="10"/>
<path d="M617.147 194.24L619.173 186.322C617.593 184.699 616.759 182.73 616.946 180.345C618.124 182.5 619.806 184.009 622.205 184.584C622.205 184.584 623.527 180.848 628.701 180.848C633.874 180.848 641.893 186.624 641.692 201.941C641.993 212.589 640.987 216.856 629.52 217.561C618.052 218.265 614.503 207.416 614.503 207.416C613.885 204.628 613.971 201.783 614.704 198.895C614.704 198.895 621.099 200.62 622.407 198.091C623.714 195.562 617.133 194.24 617.133 194.24H617.147Z" fill="#801316"/>
<path d="M714.937 194.24L716.963 186.322C715.382 184.699 714.549 182.73 714.736 180.345C715.914 182.5 717.595 184.009 719.995 184.584C719.995 184.584 721.317 180.848 726.491 180.848C731.664 180.848 739.683 186.624 739.481 201.941C739.783 212.589 738.777 216.856 727.31 217.561C715.842 218.265 712.293 207.416 712.293 207.416C711.675 204.628 711.761 201.783 712.494 198.895C712.494 198.895 718.889 200.62 720.196 198.091C721.504 195.562 714.923 194.24 714.923 194.24H714.937Z" fill="#801316"/>
<path d="M659.956 217.374C671.136 220.894 682.503 221.411 694.043 219.199C694.043 219.199 685.722 225.895 676.597 226.297C667.472 226.699 659.956 217.374 659.956 217.374Z" fill="#C12532"/>
<path d="M666.854 269.705C666.854 269.705 633.17 294.046 619.374 301.346C605.579 308.645 583.262 304.191 582.86 313.919C582.457 323.647 599.084 323.244 614.92 322.842C630.741 322.44 652.254 308.243 652.254 308.243L730.155 302.567C742.413 311.534 770.076 317.626 776.011 320.414C782.679 323.546 808.373 327.77 814.552 325.285C821.134 322.641 823.878 325.687 824.697 318.388C825.516 311.088 806.849 311.893 799.952 311.49C793.054 311.088 776.413 300.541 760.994 287.552C745.574 274.562 724.076 266.86 724.076 266.86L666.868 269.705H666.854Z" fill="white" stroke="#A11D22" stroke-width="3" stroke-miterlimit="10"/>
<path d="M660.488 396.9C658.965 407.892 661.537 423.223 665.359 439.877C669.944 454.533 671.395 469.937 671.582 485.657C678.192 487.582 683.653 479.42 685.104 470.081C686.556 460.741 682.403 451.085 683.753 435.509C685.104 419.933 689.703 398.135 689.703 398.135L660.488 396.885V396.9Z" fill="white" stroke="#A11D22" stroke-width="3" stroke-miterlimit="10"/>
<path d="M684.932 468.342L671.438 469.046" stroke="#A11D22" stroke-width="3" stroke-miterlimit="10"/>
<path d="M708.154 397.833C708.456 408.926 713.5 423.626 719.995 439.432C726.907 453.14 730.888 468.098 733.633 483.573C740.473 484.378 744.525 475.455 744.425 466C744.324 456.545 738.648 447.694 737.426 432.118C736.205 416.528 737.168 394.27 737.168 394.27L708.14 397.833H708.154Z" fill="white" stroke="#A11D22" stroke-width="3" stroke-miterlimit="10"/>
<path d="M743.979 464.304L730.787 467.207" stroke="#A11D22" stroke-width="3" stroke-miterlimit="10"/>
<path d="M666.854 269.705C658.232 291.589 636.015 340.3 626.689 354.094C617.363 367.889 603.294 373.176 602.346 383.306C600.319 405.018 670.303 404.702 700.94 401.972C731.937 399.213 799.204 379.887 799.937 365.46C800.613 352.442 793.442 350.445 780.049 344.367C766.656 338.289 756.51 332.598 742.312 316.778C728.115 300.958 724.048 266.875 724.048 266.875L666.84 269.72L666.854 269.705Z" fill="#A11D22"/>
<path d="M688.754 29.9306C631.848 30.8214 589.254 48.9263 583.262 111.072C587.372 146.118 610.968 167.499 658.735 171.925C698.957 165.372 731.132 151.593 744.152 147.382C757.171 143.172 773.079 154.653 776.413 160.774C783.914 174.569 780.236 199.743 763.422 215.75C763.422 215.75 737.455 221.023 735.831 245.767C734.208 270.51 779.646 279.85 779.646 279.85C802.524 280.022 821.895 273.585 838.076 261.185C842.689 256.199 845.908 251.069 847 245.767C839.183 244.603 831.653 243.238 829.957 237.648C823.303 223.84 845.376 197.889 847 160.559C846.784 125.297 838.277 96.3727 819.409 75.3652C795.727 41.9717 749.727 29.0684 688.754 29.9306Z" fill="#A11D22"/>
</g>
<defs>
<clipPath id="clip0_29_54">
<rect width="847" height="503" fill="white"/>
</clipPath>
</defs>
</svg>
